<?xml version="1.0" standalone="no"?>
<!DOCTYPE svg PUBLIC "-//W3C//DTD SVG 20010904//EN"
 "http://www.w3.org/TR/2001/REC-SVG-20010904/DTD/svg10.dtd">
<svg version="1.0" xmlns="http://www.w3.org/2000/svg"
 width="528.000000pt" height="473.000000pt" viewBox="0 0 528.000000 473.000000"
 preserveAspectRatio="xMidYMid meet">

<g transform="translate(0.000000,473.000000) scale(0.100000,-0.100000)"
fill="#000000" stroke="none">
<path d="M2675 4399 c-10 -15 3 -25 16 -12 7 7 7 13 1 17 -6 3 -14 1 -17 -5z"/>
<path d="M2380 4390 c0 -5 5 -10 11 -10 5 0 7 5 4 10 -3 6 -8 10 -11 10 -2 0
-4 -4 -4 -10z"/>
<path d="M2850 4374 c0 -8 5 -12 10 -9 6 3 10 10 10 16 0 5 -4 9 -10 9 -5 0
-10 -7 -10 -16z"/>
<path d="M2275 4370 c4 -6 11 -8 16 -5 14 9 11 15 -7 15 -8 0 -12 -5 -9 -10z"/>
<path d="M2180 4360 c0 -5 5 -10 10 -10 6 0 10 5 10 10 0 6 -4 10 -10 10 -5 0
-10 -4 -10 -10z"/>
<path d="M2940 4360 c0 -5 5 -10 10 -10 6 0 10 5 10 10 0 6 -4 10 -10 10 -5 0
-10 -4 -10 -10z"/>
<path d="M2074 4345 c-9 -23 10 -40 25 -22 9 11 8 17 -4 27 -12 10 -16 9 -21
-5z"/>
<path d="M3040 4340 c0 -5 5 -10 11 -10 5 0 7 5 4 10 -3 6 -8 10 -11 10 -2 0
-4 -4 -4 -10z"/>
<path d="M1970 4305 c0 -10 7 -15 18 -13 21 4 19 22 -2 26 -10 2 -16 -3 -16
-13z"/>
<path d="M2380 4294 c-8 -1 -62 -10 -119 -19 -198 -32 -454 -122 -629 -223
-156 -90 -265 -174 -408 -317 -302 -301 -460 -621 -525 -1058 -10 -73 -19
-158 -19 -190 l0 -58 47 3 48 3 7 92 c20 257 91 519 195 712 l45 85 -22 18
c-29 24 -21 32 15 16 23 -10 29 -10 33 0 9 28 124 179 196 258 307 334 754
549 1212 582 l99 7 3 48 3 47 -83 -1 c-46 -1 -90 -3 -98 -5z"/>
<path d="M2580 4251 l0 -51 66 0 c282 0 686 -134 939 -311 l70 -49 27 31 c14
17 32 29 38 27 8 -2 2 -16 -16 -37 l-28 -33 107 -99 c112 -105 206 -213 276
-316 40 -60 62 -75 76 -53 3 6 14 10 23 10 13 -1 10 -6 -11 -24 l-28 -22 45
-85 c60 -112 103 -222 133 -338 29 -116 63 -335 63 -413 l0 -58 50 0 50 0 0
53 c0 132 -44 376 -96 537 -146 447 -508 864 -941 1083 -213 108 -489 182
-725 194 l-118 6 0 -52z"/>
<path d="M1874 4279 c-10 -17 13 -36 27 -22 12 12 4 33 -11 33 -5 0 -12 -5
-16 -11z"/>
<path d="M1781 4246 c-12 -14 -5 -26 16 -26 15 0 18 26 4 34 -5 3 -14 0 -20
-8z"/>
<path d="M1515 4110 c-8 -13 4 -32 16 -25 12 8 12 35 0 35 -6 0 -13 -4 -16
-10z"/>
<path d="M2282 4077 c-16 -21 -42 -102 -42 -130 0 -23 -5 -29 -30 -34 -38 -7
-44 -17 -30 -43 16 -30 70 -60 109 -60 42 0 106 35 120 67 15 33 14 89 -3 121
-29 56 -105 104 -124 79z m83 -54 c14 -21 25 -48 25 -60 0 -20 -5 -23 -36 -23
-29 0 -34 3 -30 18 3 10 7 37 8 60 1 23 3 42 4 42 2 0 15 -17 29 -37z m-45
-99 c0 -18 -24 -44 -40 -44 -20 0 -44 32 -33 44 8 8 73 8 73 0z"/>
<path d="M2940 3951 c0 -125 1 -131 20 -131 20 0 20 5 18 127 -3 112 -5 128
-20 131 -16 3 -18 -8 -18 -127z"/>
<path d="M2740 3990 c0 -43 3 -50 20 -50 17 0 20 7 20 50 0 43 -3 50 -20 50
-17 0 -20 -7 -20 -50z"/>
<path d="M2810 3935 c0 -87 3 -105 15 -105 12 0 15 18 15 105 0 87 -3 105 -15
105 -12 0 -15 -18 -15 -105z"/>
<path d="M2880 3930 c0 -82 3 -100 15 -100 12 0 15 18 15 100 0 82 -3 100 -15
100 -12 0 -15 -18 -15 -100z"/>
<path d="M3350 3876 c0 -70 -2 -76 -20 -76 -19 0 -21 -5 -18 -62 3 -60 4 -63
31 -66 l27 -3 0 135 c0 79 -4 137 -10 141 -6 4 -10 -22 -10 -69z"/>
<path d="M2038 3909 c31 -31 50 -85 38 -115 -3 -8 -10 -13 -16 -9 -5 3 -16 -7
-24 -23 -8 -16 -30 -36 -48 -45 -35 -17 -138 -20 -138 -5 0 5 -4 6 -10 3 -28
-17 19 -53 80 -61 144 -20 239 156 138 255 -18 17 -36 31 -42 31 -5 0 4 -14
22 -31z"/>
<path d="M1886 3907 c-21 -12 -39 -26 -40 -31 -1 -5 22 -21 49 -37 l50 -28 55
34 c30 19 49 35 42 35 -7 0 -10 5 -7 10 4 6 3 9 -2 8 -4 -1 -22 6 -40 15 -42
22 -60 21 -107 -6z"/>
<path d="M2740 3880 c0 -44 3 -51 18 -48 13 3 17 13 17 48 0 35 -4 45 -17 48
-15 3 -18 -4 -18 -48z"/>
<path d="M3108 3868 c-2 -41 -8 -55 -23 -63 -17 -9 -20 -18 -17 -72 3 -62 3
-63 32 -63 l30 0 0 119 c0 120 -16 178 -22 79z"/>
<path d="M3190 3857 c0 -37 -4 -47 -20 -52 -17 -5 -20 -15 -20 -71 l0 -65 33
3 32 3 -2 110 c-2 64 -7 111 -13 113 -6 2 -10 -15 -10 -41z"/>
<path d="M3430 3854 c0 -38 -4 -47 -20 -51 -19 -5 -21 -12 -18 -67 3 -58 4
-61 31 -64 l27 -3 0 115 c0 71 -4 116 -10 116 -5 0 -10 -21 -10 -46z"/>
<path d="M3270 3849 c0 -32 -4 -42 -20 -46 -21 -6 -26 -40 -14 -102 6 -27 11
-32 33 -29 28 3 28 2 22 176 -1 54 -21 55 -21 1z"/>
<path d="M1811 3751 c-12 -8 -13 -12 -2 -25 11 -13 16 -14 29 -4 12 10 16 10
19 1 3 -7 10 -13 16 -13 6 0 0 11 -13 25 -26 28 -29 29 -49 16z m24 -11 c-3
-5 -11 -10 -16 -10 -6 0 -7 5 -4 10 3 6 11 10 16 10 6 0 7 -4 4 -10z"/>
<path d="M3742 3685 l-33 -37 26 -20 c34 -26 48 -56 47 -95 -2 -46 -16 -68
-57 -87 -41 -20 -89 -10 -121 25 l-18 20 -8 -21 c-10 -26 19 -97 52 -130 l22
-22 -24 -26 -24 -27 22 -21 c22 -22 23 -22 54 -2 52 31 58 15 8 -20 -26 -18
-50 -32 -55 -32 -5 0 -17 14 -26 30 -10 17 -24 30 -30 30 -7 0 -22 15 -34 33
-18 25 -23 48 -23 93 0 69 -22 114 -72 144 -54 33 -95 36 -145 11 -57 -28 -73
-65 -73 -170 l0 -80 -64 45 c-292 204 -707 230 -1041 64 -121 -59 -207 -124
-304 -225 -130 -137 -205 -275 -259 -474 -23 -86 -26 -115 -26 -271 -1 -154 2
-185 23 -260 96 -347 345 -607 686 -718 134 -44 225 -56 378 -49 227 10 410
75 584 206 318 240 470 619 408 1021 -8 52 -19 109 -24 127 -6 21 -4 80 5 175
7 78 14 156 14 172 0 39 9 29 60 -63 79 -145 126 -302 145 -486 8 -81 -14
-138 -50 -129 -29 7 -28 12 -48 -126 -23 -152 -60 -269 -127 -405 -68 -139
-130 -224 -231 -320 -182 -172 -452 -292 -701 -312 l-78 -6 0 -45 0 -45 -87 6
c-237 17 -497 116 -681 257 -60 46 -174 167 -225 239 -165 228 -254 487 -258
751 -1 47 -4 73 -6 57 -2 -15 -8 -25 -13 -22 -12 8 -7 -48 5 -57 6 -5 5 -8 -2
-8 -7 0 -13 -5 -13 -11 0 -5 5 -7 10 -4 6 4 10 -7 10 -27 0 -18 3 -44 6 -58 4
-20 3 -22 -5 -10 -8 11 -11 4 -11 -34 0 -42 2 -47 15 -36 14 11 14 10 5 -15
-8 -20 -8 -30 0 -35 6 -4 8 -14 4 -24 -4 -11 0 -23 12 -32 11 -9 13 -13 7 -9
-7 3 -13 2 -13 -3 0 -27 38 -132 87 -239 l55 -123 -23 -21 -24 -21 27 16 c26
15 27 15 47 -17 11 -18 32 -46 46 -64 l26 -31 -38 -36 c-21 -19 -41 -36 -45
-36 -5 0 -8 -5 -8 -11 0 -8 5 -8 15 1 26 21 18 -18 -8 -43 -149 -142 -186
-180 -181 -188 3 -5 20 -15 37 -23 29 -11 34 -11 49 7 10 11 15 24 12 28 -3 5
-2 14 2 20 4 8 13 4 25 -12 16 -21 18 -21 13 -4 -3 15 18 41 92 110 53 50 101
92 106 93 5 2 26 -16 47 -40 27 -30 36 -47 29 -55 -7 -9 -17 -3 -38 20 l-28
32 -64 -60 c-118 -111 -238 -244 -238 -264 0 -4 24 -27 53 -52 91 -77 81 -75
115 -28 24 32 29 46 22 60 -18 32 -12 69 10 69 12 0 20 -7 20 -17 0 -37 38
-82 79 -94 77 -23 132 22 135 108 1 35 5 48 16 48 11 0 16 -14 18 -55 3 -50 0
-59 -30 -92 -57 -63 -114 -73 -190 -33 l-47 25 -20 -26 c-12 -15 -21 -32 -21
-38 0 -6 24 -28 53 -49 49 -36 53 -38 64 -20 7 10 19 27 28 38 13 17 13 14 -1
-17 -22 -47 -18 -52 93 -110 119 -62 131 -65 143 -36 10 22 10 22 5 -4 -5 -28
-9 -26 185 -97 94 -34 32 -23 -79 15 -159 53 -368 161 -496 255 -435 322 -697
796 -733 1322 l-7 109 -49 3 -49 3 6 -112 c34 -631 399 -1215 955 -1531 255
-143 576 -237 847 -246 l70 -3 3 50 3 51 -138 12 c-76 6 -142 17 -148 22 -7 7
-2 8 16 4 44 -11 260 -21 266 -12 3 5 3 100 1 212 -2 154 0 207 10 216 13 14
13 17 13 -373 0 -187 0 -188 22 -188 12 0 72 5 132 10 579 55 1083 358 1407
845 185 278 299 615 315 930 l6 110 -49 0 -49 0 -7 -100 c-21 -281 -95 -530
-227 -759 -256 -445 -654 -750 -1135 -871 -162 -41 -406 -69 -391 -45 3 6 37
10 75 10 95 0 302 36 316 56 7 9 13 11 16 4 4 -12 72 6 191 52 69 26 77 32 71
51 -15 46 -34 84 -48 97 -9 7 -16 22 -16 33 0 34 22 3 54 -75 16 -38 30 -68
33 -68 18 0 183 96 271 158 l62 44 -21 37 c-20 34 -20 35 -1 13 11 -12 22 -28
24 -34 4 -11 118 76 118 90 0 18 -45 72 -56 68 -29 -11 -103 -72 -104 -84 0
-7 -4 -11 -9 -8 -5 3 -37 -13 -70 -35 -34 -23 -64 -39 -67 -36 -3 2 25 23 62
46 l66 42 -27 35 c-15 20 -33 61 -40 92 -8 31 -13 57 -12 57 1 1 30 19 63 40
56 36 134 126 134 153 0 5 16 12 35 14 l35 4 1 -73 c0 -40 1 -96 1 -124 1 -42
-4 -55 -27 -79 l-28 -29 27 -36 c15 -19 30 -35 33 -35 4 0 39 35 80 78 73 77
73 77 52 95 -12 9 -18 17 -13 17 4 0 15 -7 24 -15 14 -13 21 -7 71 58 30 39
77 107 103 150 38 60 46 80 37 91 -9 11 -8 14 6 12 26 -2 103 162 143 302 18
62 30 115 28 116 -4 4 -129 33 -178 41 -50 9 -72 16 -67 21 2 3 57 -7 121 -21
65 -14 121 -25 126 -25 4 0 10 17 13 38 4 20 9 51 13 68 7 37 6 38 -141 55
-55 6 -107 15 -115 20 -9 5 -2 6 20 3 174 -25 239 -30 244 -18 3 7 8 55 12
108 l7 96 -144 1 c-79 1 -191 5 -249 9 l-105 7 75 2 c41 2 80 4 85 6 6 1 20 3
33 3 20 2 22 7 22 70 0 74 -5 88 -35 94 -18 4 17 9 235 37 l55 6 -3 55 c-3 68
-45 246 -58 244 -5 -1 -25 -5 -44 -8 l-35 -6 35 13 c19 8 37 22 38 31 4 19
-48 166 -59 166 -3 0 -46 -17 -95 -39 -68 -29 -90 -43 -92 -60 -4 -28 19 -36
64 -21 33 11 39 11 51 -6 22 -30 15 -43 -32 -66 -37 -18 -49 -20 -65 -11 -17
11 -20 8 -31 -25 -21 -66 -41 -66 -56 1 -3 15 -6 27 -7 27 -1 0 -31 -11 -66
-25 -73 -29 -70 -28 -70 -16 0 5 33 20 73 33 57 20 73 29 75 46 3 17 10 22 33
22 27 0 30 3 23 23 -3 12 -8 23 -9 25 -2 2 -51 -17 -110 -43 -60 -25 -110 -43
-112 -41 -6 5 60 40 97 51 28 9 312 135 320 142 2 2 -15 42 -39 88 -42 81 -44
84 -65 70 -26 -19 -36 -19 -36 -1 0 8 9 18 20 21 11 3 20 10 20 14 0 21 -144
206 -225 290 l-91 93 -32 -37z m-317 -207 l26 -23 -1 -575 c-1 -316 -2 -658
-3 -760 l-2 -185 -27 -30 c-16 -16 -28 -35 -28 -41 0 -16 -35 -45 -44 -37 -4
4 -4 0 -1 -9 4 -9 2 -19 -4 -23 -13 -7 -13 -11 -16 185 -4 275 -9 281 -15 16
-4 -195 -8 -260 -17 -264 -10 -3 -13 173 -13 856 l0 859 26 27 c34 33 83 35
119 4z m-685 -39 c210 -33 490 -179 490 -255 0 -23 -3 -21 -49 24 -36 36 -62
52 -98 61 -26 7 -68 21 -92 32 -34 15 -47 17 -55 8 -8 -9 -7 -10 5 -6 9 3 20
-3 27 -14 14 -22 3 -25 -18 -6 -12 10 -12 9 0 -6 10 -14 10 -21 2 -29 -9 -9
-12 -9 -12 0 0 7 -7 9 -17 5 -12 -5 -15 -2 -10 10 3 9 2 17 -3 17 -6 0 -10 -8
-10 -19 0 -22 -16 -36 -52 -45 -17 -4 -28 -13 -28 -23 0 -32 -24 -83 -40 -84
-8 -1 -30 -1 -49 0 -18 2 -31 -1 -28 -6 6 -10 -27 -43 -42 -43 -12 0 -23 -29
-15 -41 3 -5 0 -17 -6 -26 -11 -17 -11 -17 -6 0 6 18 -2 21 -22 9 -7 -5 -10
-16 -6 -25 5 -13 0 -17 -17 -17 -23 -1 -23 -1 -6 -14 13 -10 15 -16 6 -22 -7
-4 -17 -1 -23 7 -6 8 -19 13 -29 11 -29 -6 -53 6 -39 20 13 13 16 39 5 36 -5
0 -15 2 -23 5 -8 3 -24 8 -35 10 -14 3 -12 5 8 6 16 0 26 5 22 11 -3 6 -1 10
5 10 6 0 13 -6 16 -13 3 -8 21 -13 44 -13 27 0 37 3 30 10 -6 6 -6 14 1 23 9
10 7 13 -6 13 -13 0 -15 3 -7 13 7 8 6 18 -4 31 -8 11 -14 16 -14 11 0 -4 -2
-6 -5 -3 -9 9 7 38 17 32 19 -12 -4 41 -25 57 -12 10 -17 21 -12 29 5 8 3 11
-6 8 -7 -2 -17 -18 -21 -34 -14 -50 -63 -94 -105 -94 -22 0 -48 -48 -64 -118
-13 -60 -24 -72 -67 -72 -28 0 -42 -8 -72 -40 -30 -33 -44 -40 -73 -40 -38 0
-77 -27 -77 -54 0 -7 -9 -25 -21 -40 -17 -22 -28 -26 -70 -26 -27 0 -49 -1
-49 -3 0 -2 -5 -29 -11 -61 -11 -62 -3 -86 31 -86 21 0 30 19 30 61 0 29 1 29
56 29 l55 0 -3 -37 c-2 -30 -7 -37 -21 -35 -24 4 -64 -22 -72 -48 -3 -11 -17
-23 -31 -26 -13 -3 -24 -14 -24 -23 0 -14 -2 -14 -10 -1 -8 12 -10 11 -10 -7
0 -14 -6 -23 -16 -23 -11 0 -14 6 -9 21 5 15 -2 29 -29 54 -20 18 -36 41 -36
49 0 9 -5 16 -11 16 -16 0 0 -42 27 -67 13 -13 28 -23 34 -23 5 0 10 -7 10
-15 0 -8 -6 -15 -14 -15 -7 0 -20 -10 -28 -22 -18 -27 -40 -16 -34 18 7 34
-22 31 -30 -3 -3 -16 -6 -31 -7 -36 -4 -16 -66 40 -70 63 -2 14 -5 -13 -6 -60
-2 -47 -5 -96 -7 -110 -2 -14 -6 -72 -10 -130 l-7 -105 -24 90 c-76 289 -10
625 170 865 55 74 166 181 233 225 122 81 284 147 407 165 79 11 244 11 317
-1z m1104 -35 c3 -8 2 -12 -4 -9 -6 3 -10 10 -10 16 0 14 7 11 14 -7z m27 -41
c13 -16 12 -17 -3 -4 -17 13 -22 21 -14 21 2 0 10 -8 17 -17z m114 -17 c36
-15 55 -42 55 -75 0 -15 -6 -21 -21 -21 -23 0 -128 -60 -129 -74 0 -5 8 -2 18
5 15 12 16 12 5 -2 -7 -9 -9 -19 -5 -24 4 -4 -7 0 -25 9 -57 29 -64 105 -15
160 33 36 67 43 117 22z m-1065 -121 c-7 -9 -15 -13 -19 -10 -3 3 1 10 9 15
21 14 24 12 10 -5z m173 -7 c48 -25 46 1 47 -815 0 -754 0 -773 -20 -793 -23
-23 -93 -60 -115 -60 -8 0 -15 -7 -15 -15 0 -8 -4 -15 -10 -15 -7 0 -10 283
-10 830 l0 831 25 24 c26 27 63 32 98 13z m697 -36 c0 -10 -87 -72 -101 -72
-24 0 0 27 47 52 56 31 54 31 54 20z m-25 -80 c3 -10 13 -12 30 -8 14 4 25 4
25 1 0 -5 -76 -55 -84 -55 -2 0 -9 14 -16 31 -10 24 -10 33 -1 38 19 12 40 9
46 -7z m-1218 -42 c2 -45 -1 -49 -17 -20 -8 14 -7 25 2 40 7 11 13 20 13 20 1
0 1 -18 2 -40z m227 21 c4 -5 -3 -7 -14 -4 -23 6 -26 13 -6 13 8 0 17 -4 20
-9z m146 -235 c0 -56 -3 -76 -10 -66 -5 8 -10 26 -10 40 0 14 -14 43 -30 64
-17 22 -30 42 -30 46 0 3 18 4 40 2 l40 -4 0 -82z m-123 50 l28 -24 0 -164
c-1 -680 -8 -1169 -16 -1140 -12 39 -29 42 -30 5 0 -28 -1 -28 -11 -5 -14 28
-38 28 -46 0 -4 -16 -10 2 -17 52 -5 41 -6 78 -2 81 4 3 4 55 -1 115 -7 79 -6
111 2 117 8 5 7 10 -3 16 -10 6 -12 20 -8 47 3 22 2 57 -3 79 -4 24 -8 -95 -9
-297 -1 -293 -3 -338 -16 -338 -13 0 -15 86 -15 711 l0 711 29 29 c37 36 79
38 118 5z m1383 4 c7 -14 8 -32 1 -58 -6 -20 -12 -48 -15 -63 -5 -22 -9 -25
-41 -21 -29 4 -34 1 -29 -12 4 -11 13 -14 30 -10 17 4 24 2 24 -9 0 -24 -10
-25 -123 -18 -5 1 -5 10 -2 21 4 14 2 20 -9 20 -25 0 -30 46 -11 95 14 37 21
45 43 46 15 0 43 7 62 14 48 19 58 18 70 -5z m-234 -69 c-7 -10 -96 -34 -103
-27 -3 3 17 11 43 20 59 18 67 19 60 7z m-1586 -26 c0 -8 7 -15 16 -15 13 0
10 -6 -10 -25 -15 -14 -31 -25 -37 -25 -5 0 -9 -5 -9 -11 0 -5 -4 -7 -10 -4
-5 3 -10 -2 -10 -12 0 -26 -95 -123 -120 -123 -6 0 -10 -4 -10 -10 0 -5 -7
-10 -15 -10 -8 0 -15 9 -15 20 0 11 5 20 10 20 6 0 10 4 10 9 0 12 158 171
170 171 5 0 10 7 10 15 0 8 5 15 10 15 6 0 10 -7 10 -15z m1600 -82 c-14 -3
-42 -8 -62 -13 -21 -4 -38 -4 -38 0 0 11 33 17 85 17 24 0 30 -1 15 -4z
m-1860 -71 c0 -4 -9 -13 -21 -20 -19 -12 -19 -11 -9 8 10 19 30 28 30 12z
m387 -88 l26 -26 -8 -432 c-10 -471 -11 -507 -14 -551 -3 -29 -3 -29 -10 -5
-7 24 -41 42 -41 21 0 -6 7 -11 15 -11 8 0 15 -4 15 -10 0 -5 -7 -10 -15 -10
-8 0 -15 -4 -15 -10 0 -5 -5 -10 -11 -10 -7 0 -9 10 -7 25 5 22 3 23 -16 13
-32 -17 -44 -33 -48 -62 -2 -15 -7 -26 -13 -26 -7 0 -10 186 -10 536 l0 536
28 24 c39 33 90 32 124 -2z m-332 -79 l25 -24 0 -228 c1 -459 -1 -707 -5 -711
-9 -9 -165 83 -165 97 0 9 0 201 0 426 l0 410 30 28 c39 35 82 36 115 2z
m-460 -65 c3 -5 1 -10 -4 -10 -6 0 -11 5 -11 10 0 6 2 10 4 10 3 0 8 -4 11
-10z m2395 -59 c0 -11 -4 -23 -10 -26 -6 -4 -10 5 -10 19 0 14 5 26 10 26 6 0
10 -9 10 -19z m-2166 -14 c11 -10 10 -15 -1 -26 -20 -18 -49 5 -32 25 14 17
17 17 33 1z m-79 -52 l25 -24 0 -277 0 -277 -21 19 c-27 24 -112 140 -133 181
-12 24 -16 65 -17 175 -2 184 -3 175 26 203 16 17 35 25 60 25 25 0 44 -8 60
-25z m2158 -352 c-7 -46 -14 -56 -36 -47 -26 10 -22 63 6 74 35 14 36 12 30
-27z m77 30 c0 -7 -24 -139 -36 -200 -3 -17 -11 -23 -29 -23 -29 0 -29 1 -10
105 24 127 23 125 50 125 14 0 25 -3 25 -7z m-150 -78 c0 -31 -3 -35 -25 -35
-14 0 -25 4 -25 9 0 9 39 61 46 61 2 0 4 -16 4 -35z m221 -36 c-6 -16 -10 -18
-10 -7 -1 22 12 55 16 42 2 -6 -1 -22 -6 -35z m17 -37 c19 -13 -5 -72 -29 -72
-13 0 -19 7 -19 24 0 50 17 67 48 48z m-200 -28 c1 -14 -2 -32 -6 -40 -7 -12
-11 -12 -27 0 -18 13 -18 15 -2 40 22 33 32 33 35 0z m142 -13 c0 -10 -3 -33
-6 -50 -5 -24 -12 -31 -30 -31 -20 0 -24 5 -24 28 0 51 11 72 36 72 17 0 24
-6 24 -19z m-99 -164 c-10 -9 -11 -8 -5 6 3 10 9 15 12 12 3 -3 0 -11 -7 -18z
m69 -3 c0 -2 -9 0 -20 6 -11 6 -20 13 -20 16 0 2 9 0 20 -6 11 -6 20 -13 20
-16z m-217 -67 c48 -28 87 -57 87 -65 0 -9 -7 -11 -20 -7 -31 10 -24 0 22 -34
52 -38 41 -41 -13 -3 -21 15 -37 32 -34 39 2 7 -18 25 -45 42 -45 28 -49 29
-55 11 -3 -10 -13 -24 -22 -32 -14 -10 -13 -7 3 20 l19 33 -40 35 c-48 42 -28
34 98 -39z m98 -20 c-10 -9 -11 -8 -5 6 3 10 9 15 12 12 3 -3 0 -11 -7 -18z
m-1542 -37 c6 8 13 11 18 7 10 -10 -18 -28 -34 -22 -7 2 -13 0 -13 -6 0 -6 -4
-7 -10 -4 -6 4 -5 11 3 19 9 10 14 11 20 2 5 -8 10 -7 16 4z m386 0 c3 -6 -1
-7 -9 -4 -18 7 -21 14 -7 14 6 0 13 -4 16 -10z m-324 -23 c-13 -13 -26 -3 -16
12 3 6 11 8 17 5 6 -4 6 -10 -1 -17z m272 6 c-7 -2 -19 -2 -25 0 -7 3 -2 5 12
5 14 0 19 -2 13 -5z m-1053 -122 c-11 -21 -30 -37 -30 -25 0 8 30 44 37 44 2
0 -1 -9 -7 -19z m2130 -31 c13 -8 10 -15 -17 -42 -38 -37 -47 -34 -38 16 7 37
25 45 55 26z m-2430 -55 c-7 -8 -17 -15 -22 -15 -6 0 -5 7 2 15 7 8 17 15 22
15 6 0 5 -7 -2 -15z m515 -24 c-21 -43 -29 -39 -8 4 9 19 18 33 21 31 2 -2 -4
-18 -13 -35z m-201 -12 c36 -17 54 -65 35 -97 -30 -54 -109 -51 -130 5 -12 33
3 76 34 91 29 14 32 14 61 1z m-253 -56 c17 -20 18 -23 3 -10 -11 9 -26 17
-33 17 -7 0 -9 5 -6 10 8 14 8 14 36 -17z m1894 -153 c1 -101 -1 -110 -18
-110 -18 0 -19 7 -15 91 4 62 9 94 19 99 11 7 10 10 -3 15 -10 4 -14 13 -11
21 4 11 9 12 17 4 7 -7 11 -54 11 -120z m-48 78 c-3 -8 -6 -5 -6 6 -1 11 2 17
5 13 3 -3 4 -12 1 -19z m-1167 -3 c14 -17 7 -30 -17 -30 -9 0 -19 -7 -21 -15
-4 -12 -2 -13 9 -3 10 8 20 9 29 3 8 -6 11 -10 5 -10 -5 0 -2 -5 8 -11 9 -5
17 -16 17 -23 0 -8 7 -27 15 -42 31 -59 24 -63 -67 -43 -45 10 -86 15 -91 12
-5 -3 -6 -26 -2 -52 5 -39 3 -48 -13 -58 -18 -10 -21 -8 -27 20 -21 92 11 190
78 238 45 33 59 35 77 14z m148 -7 c25 -7 31 -14 27 -28 -4 -11 3 -23 19 -33
34 -22 66 -95 66 -148 0 -84 -77 -169 -154 -169 -20 0 -26 -5 -26 -21 0 -12
-5 -19 -12 -16 -7 2 -13 10 -13 17 0 7 -18 19 -40 27 -36 12 -95 58 -95 73 0
4 12 12 28 19 15 7 51 26 80 44 l52 31 0 88 c0 48 -3 87 -7 87 -21 -3 -31 3
-36 20 -3 11 -3 22 0 24 6 6 72 -2 111 -15z m832 -138 c0 -107 -3 -132 -15
-136 -36 -14 -45 13 -45 142 l0 124 30 0 30 0 0 -130z m77 124 c-3 -3 -12 -4
-19 -1 -8 3 -5 6 6 6 11 1 17 -2 13 -5z m3 -25 c0 -4 3 -14 6 -23 4 -12 0 -16
-15 -16 -16 0 -20 6 -19 23 2 21 28 36 28 16z m-661 -25 c2 -2 -17 -4 -42 -4
-38 0 -47 -3 -48 -17 -1 -15 -2 -16 -6 -2 -2 9 -14 21 -26 27 -17 8 -5 9 48 5
39 -3 72 -7 74 -9z m404 -140 c4 -86 4 -160 1 -165 -3 -5 -12 -9 -21 -9 -14 0
-15 17 -10 158 4 86 7 160 7 165 0 4 4 7 8 7 5 0 12 -70 15 -156z m-80 -5 c6
-163 3 -187 -19 -168 -8 7 -14 31 -14 59 0 90 13 260 20 260 4 0 10 -68 13
-151z m-79 49 c8 -123 8 -198 -2 -198 -20 0 -32 28 -32 75 0 82 12 215 20 215
4 0 10 -41 14 -92z m256 -7 c-8 -5 -26 -11 -40 -15 -21 -5 -20 -3 5 9 32 15
60 20 35 6z m-1095 -31 c3 -5 1 -10 -4 -10 -6 0 -11 5 -11 10 0 6 2 10 4 10 3
0 8 -4 11 -10z"/>
<path d="M3350 3434 c-11 -12 -10 -18 3 -32 16 -15 18 -15 34 0 13 14 14 20 3
32 -7 9 -16 16 -20 16 -4 0 -13 -7 -20 -16z"/>
<path d="M3362 2030 c0 -14 2 -19 5 -12 2 6 2 18 0 25 -3 6 -5 1 -5 -13z"/>
<path d="M3411 1984 c0 -11 3 -14 6 -6 3 7 2 16 -1 19 -3 4 -6 -2 -5 -13z"/>
<path d="M3362 1935 c-7 -8 -8 -15 -3 -15 6 0 8 -8 5 -17 -5 -15 -3 -15 11 2
14 17 17 18 25 5 7 -11 10 -8 10 15 0 23 -3 27 -10 15 -6 -10 -10 -11 -10 -2
0 16 -12 15 -28 -3z"/>
<path d="M2610 3145 c0 -8 -10 -19 -21 -26 -19 -9 -19 -13 -7 -25 8 -8 22 -12
31 -8 19 7 22 20 8 28 -5 3 -7 15 -4 26 3 11 3 20 -1 20 -3 0 -6 -7 -6 -15z
m-3 -47 c-3 -8 -6 -5 -6 6 -1 11 2 17 5 13 3 -3 4 -12 1 -19z"/>
<path d="M2198 2993 c-10 -2 -18 -11 -18 -19 0 -19 83 -19 99 0 9 11 5 15 -20
20 -33 6 -34 6 -61 -1z"/>
<path d="M1791 2694 c0 -11 3 -14 6 -6 3 7 2 16 -1 19 -3 4 -6 -2 -5 -13z"/>
<path d="M1691 2664 c0 -11 3 -14 6 -6 3 7 2 16 -1 19 -3 4 -6 -2 -5 -13z"/>
<path d="M1782 2635 c0 -16 2 -22 5 -12 2 9 2 23 0 30 -3 6 -5 -1 -5 -18z"/>
<path d="M1672 2565 c0 -16 2 -22 5 -12 2 9 2 23 0 30 -3 6 -5 -1 -5 -18z"/>
<path d="M3041 3167 c-16 -16 -14 -34 5 -41 21 -8 45 11 38 29 -8 19 -30 25
-43 12z"/>
<path d="M3003 1615 c0 -33 2 -45 4 -27 2 18 2 45 0 60 -2 15 -4 0 -4 -33z"/>
<path d="M2720 2855 c-10 -12 -10 -18 0 -30 16 -19 39 -19 46 0 6 15 -11 45
-26 45 -4 0 -13 -7 -20 -15z"/>
<path d="M2740 1944 c0 -8 5 -12 10 -9 6 3 10 10 10 16 0 5 -4 9 -10 9 -5 0
-10 -7 -10 -16z"/>
<path d="M2764 1898 c-4 -7 -4 -10 1 -6 4 4 14 0 21 -10 12 -16 13 -15 14 6 0
24 -24 30 -36 10z"/>
<path d="M2740 1772 c0 -47 4 -82 10 -82 9 0 3 148 -6 159 -2 2 -4 -32 -4 -77z"/>
<path d="M2792 1824 c-1 -17 -5 -47 -8 -65 -4 -28 -3 -31 6 -16 6 9 9 39 7 65
-2 29 -4 35 -5 16z"/>
<path d="M2738 1613 c7 -3 16 -2 19 1 4 3 -2 6 -13 5 -11 0 -14 -3 -6 -6z"/>
<path d="M2411 2530 c-19 -11 -9 -45 14 -45 13 0 21 8 23 21 3 23 -17 37 -37
24z"/>
<path d="M2363 1640 c0 -25 2 -35 4 -22 2 12 2 32 0 45 -2 12 -4 2 -4 -23z"/>
<path d="M2074 2435 c-8 -19 3 -35 26 -35 19 0 34 25 24 41 -8 14 -44 10 -50
-6z"/>
<path d="M1762 2238 c4 -30 43 -33 43 -3 0 13 -8 21 -23 23 -20 3 -23 0 -20
-20z"/>
<path d="M1485 3696 c-16 -7 -43 -28 -60 -45 -26 -28 -30 -40 -30 -89 0 -44 5
-65 24 -90 13 -18 26 -31 28 -28 3 3 18 -1 34 -9 111 -58 224 52 183 177 -25
78 -108 117 -179 84z m121 -60 c28 -28 34 -41 34 -77 -1 -68 -44 -109 -115
-109 -81 0 -127 107 -74 174 44 56 106 61 155 12z"/>
<path d="M965 3630 c-8 -14 3 -30 21 -30 8 0 14 9 14 20 0 21 -24 28 -35 10z"/>
<path d="M4325 3562 c162 -255 273 -560 311 -852 20 -157 15 -498 -10 -635
-54 -300 -155 -557 -313 -800 -495 -760 -1395 -1111 -2269 -884 -259 67 -536
199 -716 341 -21 17 -43 26 -49 22 -7 -4 -9 -3 -6 3 9 14 -29 47 -43 38 -6 -3
-9 -2 -8 3 2 5 -51 60 -117 123 -66 63 -100 91 -75 64 24 -28 56 -63 70 -78
14 -16 42 -47 63 -68 20 -22 37 -42 37 -45 0 -3 9 -17 20 -31 11 -14 20 -22
20 -18 0 4 12 -5 27 -21 15 -16 32 -28 39 -26 6 1 18 -5 25 -15 12 -15 12 -16
-4 -10 -11 4 -16 3 -12 -3 3 -6 13 -10 21 -10 8 0 14 -4 14 -10 0 -5 9 -10 20
-10 11 0 20 -5 20 -11 0 -5 -6 -7 -12 -4 -7 4 -2 -2 12 -13 13 -11 27 -20 30
-19 7 2 60 -39 60 -47 0 -3 16 -21 35 -40 20 -20 36 -39 36 -43 0 -5 3 -10 6
-13 4 -3 3 0 0 6 -5 8 2 11 18 10 23 -1 24 -2 8 -13 -16 -12 -16 -13 0 -13 9
0 19 1 22 3 2 1 11 -7 19 -18 9 -11 16 -17 16 -13 0 4 9 0 19 -9 16 -13 105
-53 119 -53 2 0 0 6 -3 13 -4 6 0 4 8 -6 38 -47 363 -133 592 -158 134 -14
388 -6 535 16 865 134 1575 783 1789 1633 87 344 85 760 -4 1073 -34 117 -118
318 -139 331 -6 4 -7 8 -2 8 6 0 1 7 -10 15 -11 8 -14 14 -6 15 16 0 -11 46
-44 75 -12 11 -24 29 -26 40 -4 23 -30 54 -40 48 -5 -2 -8 3 -8 11 0 8 -18 35
-39 58 -22 24 -53 59 -71 78 -25 28 -22 20 15 -38z m-2759 -3079 c-6 -6 -36 9
-36 18 0 5 9 4 20 -3 10 -7 18 -14 16 -15z"/>
<path d="M3643 3579 c-43 -16 -23 -109 23 -109 15 0 17 23 6 81 -6 33 -9 36
-29 28z"/>
<path d="M3734 3556 c-3 -9 -15 -16 -25 -16 -15 0 -19 -7 -19 -35 0 -24 5 -35
14 -35 19 0 56 47 56 71 0 24 -19 34 -26 15z"/>
<path d="M857 3474 c-14 -15 -6 -34 14 -34 14 0 19 5 17 17 -3 18 -20 27 -31
17z"/>
<path d="M4280 3420 c-12 -7 -12 -12 -2 -22 9 -9 15 -9 24 0 16 16 -2 34 -22
22z"/>
<path d="M1304 3344 c-7 -3 0 -17 17 -34 43 -42 41 -100 -5 -146 -38 -38 -72
-43 -117 -17 -63 37 -61 133 4 174 l32 21 -30 -6 c-46 -10 -85 -61 -85 -112 0
-48 8 -74 22 -74 5 0 21 -9 35 -20 58 -45 145 -30 183 32 27 44 25 133 -4 166
-19 22 -30 25 -52 16z"/>
<path d="M727 3214 c-14 -14 -7 -35 11 -32 9 2 17 10 17 17 0 16 -18 25 -28
15z"/>
<path d="M4387 3214 c-14 -15 -6 -34 14 -34 14 0 19 5 17 17 -3 18 -20 27 -31
17z"/>
<path d="M1090 2945 l0 -74 -30 6 c-35 6 -38 -6 -15 -51 8 -15 15 -43 15 -60
0 -18 6 -40 13 -50 14 -19 21 -19 117 -8 52 6 66 11 68 26 2 10 0 16 -6 12 -5
-3 -16 4 -24 17 -13 19 -13 26 2 60 9 20 19 35 22 32 2 -3 4 5 4 18 -1 12 -4
24 -7 27 -4 3 -14 22 -22 42 -18 42 -68 78 -109 78 l-28 0 0 -75z"/>
<path d="M4497 2836 c-7 -16 1 -26 20 -26 7 0 13 9 13 20 0 23 -25 27 -33 6z"/>
<path d="M596 2733 c-11 -11 -6 -23 9 -23 8 0 15 4 15 9 0 13 -16 22 -24 14z"/>
<path d="M585 2639 c-4 -6 -5 -13 -2 -16 7 -7 27 6 27 18 0 12 -17 12 -25 -2z"/>
<path d="M4210 2609 c-63 -10 -118 -18 -122 -18 -10 -1 -10 -72 -2 -123 l7
-38 130 0 130 0 -7 92 c-3 51 -9 95 -14 98 -4 3 -59 -2 -122 -11z"/>
<path d="M1332 2580 c0 -19 2 -27 5 -17 2 9 2 25 0 35 -3 9 -5 1 -5 -18z"/>
<path d="M580 2544 c0 -8 5 -12 10 -9 6 3 10 10 10 16 0 5 -4 9 -10 9 -5 0
-10 -7 -10 -16z"/>
<path d="M1321 2514 c0 -11 3 -14 6 -6 3 7 2 16 -1 19 -3 4 -6 -2 -5 -13z"/>
<path d="M1302 2320 c0 -19 2 -27 5 -17 2 9 2 25 0 35 -3 9 -5 1 -5 -18z"/>
<path d="M1028 2333 c-114 -4 -117 -4 -105 -23 11 -18 23 -20 124 -20 106 0
113 -1 113 -20 0 -11 -6 -20 -12 -21 -88 -4 -224 4 -230 14 -5 8 -8 7 -8 -4 0
-9 8 -23 18 -32 15 -14 41 -17 136 -17 l116 0 -16 -25 c-16 -25 -16 -25 -136
-18 l-120 6 13 -21 c13 -21 21 -22 141 -22 118 0 148 -7 117 -26 -6 -3 -67 -6
-135 -6 -73 0 -124 -3 -124 -9 0 -5 7 -21 16 -34 16 -25 17 -25 185 -25 93 0
169 3 169 6 0 4 -17 37 -38 73 -36 62 -37 67 -23 92 14 25 13 29 -12 59 -15
17 -27 35 -27 40 0 11 -30 41 -38 38 -4 -1 -60 -4 -124 -5z"/>
<path d="M4537 2273 c-13 -12 -7 -23 13 -23 11 0 20 7 20 15 0 15 -21 21 -33
8z"/>
<path d="M4530 2160 c-12 -7 -12 -12 -2 -22 9 -9 15 -9 24 0 16 16 -2 34 -22
22z"/>
<path d="M4504 2039 c-3 -6 -1 -16 5 -22 9 -9 14 -8 21 3 9 15 4 30 -10 30 -5
0 -12 -5 -16 -11z"/>
<path d="M630 1931 c0 -6 5 -13 10 -16 6 -3 10 1 10 9 0 9 -4 16 -10 16 -5 0
-10 -4 -10 -9z"/>
<path d="M1046 1899 c-44 -51 -32 -115 26 -145 66 -34 133 6 133 81 0 61 -33
95 -91 95 -35 0 -47 -5 -68 -31z"/>
<path d="M4477 1924 c-9 -10 2 -24 19 -24 8 0 14 7 14 15 0 15 -21 21 -33 9z"/>
<path d="M670 1810 c0 -5 5 -10 11 -10 5 0 7 5 4 10 -3 6 -8 10 -11 10 -2 0
-4 -4 -4 -10z"/>
<path d="M4444 1809 c-10 -17 13 -36 27 -22 12 12 4 33 -11 33 -5 0 -12 -5
-16 -11z"/>
<path d="M1301 1784 c0 -11 3 -14 6 -6 3 7 2 16 -1 19 -3 4 -6 -2 -5 -13z"/>
<path d="M1271 1774 c0 -11 3 -14 6 -6 3 7 2 16 -1 19 -3 4 -6 -2 -5 -13z"/>
<path d="M1250 1735 c0 -8 2 -15 4 -15 2 0 6 7 10 15 3 8 1 15 -4 15 -6 0 -10
-7 -10 -15z"/>
<path d="M1224 1728 c3 -11 -4 -26 -17 -39 l-22 -21 22 11 c30 15 36 28 23 48
-11 17 -11 17 -6 1z"/>
<path d="M697 1706 c-8 -21 16 -39 31 -24 8 8 9 15 1 25 -15 17 -25 17 -32 -1z"/>
<path d="M4404 1699 c-10 -17 13 -36 27 -22 12 12 4 33 -11 33 -5 0 -12 -5
-16 -11z"/>
<path d="M1106 1674 c-4 -10 -13 -13 -27 -9 -15 5 -19 4 -15 -4 11 -17 43 -13
50 5 4 9 13 14 21 10 8 -3 15 -1 15 4 0 16 -37 11 -44 -6z"/>
<path d="M1210 1640 c-8 -5 -10 -10 -5 -10 6 0 17 5 25 10 8 5 11 10 5 10 -5
0 -17 -5 -25 -10z"/>
<path d="M1370 1582 c-31 -31 -84 -83 -118 -116 -60 -56 -62 -59 -46 -77 9
-11 23 -19 30 -19 7 0 55 40 105 90 51 49 98 91 106 94 17 7 16 46 -1 69 -7 9
-15 17 -17 17 -2 -1 -29 -26 -59 -58z"/>
<path d="M1235 1535 c-38 -36 -76 -63 -83 -60 -9 3 -10 0 -2 -15 5 -10 13 -21
18 -23 12 -8 165 140 158 152 -11 17 -17 14 -91 -54z"/>
<path d="M4364 1586 c-8 -22 3 -33 18 -18 9 9 9 15 0 24 -9 9 -13 7 -18 -6z"/>
<path d="M1365 1414 c-77 -69 -93 -89 -84 -100 9 -11 29 4 105 78 52 51 94 96
94 100 0 20 -27 2 -115 -78z"/>
<path d="M810 1470 c0 -5 5 -10 11 -10 5 0 7 5 4 10 -3 6 -8 10 -11 10 -2 0
-4 -4 -4 -10z"/>
<path d="M4303 1468 c2 -7 10 -13 17 -13 7 0 15 6 18 13 2 7 -5 12 -18 12 -13
0 -20 -5 -17 -12z"/>
<path d="M867 1384 c-14 -15 -6 -34 14 -34 14 0 19 5 17 17 -3 18 -20 27 -31
17z"/>
<path d="M4245 1370 c-8 -13 4 -32 16 -25 12 8 12 35 0 35 -6 0 -13 -4 -16
-10z"/>
<path d="M4170 1255 c0 -10 7 -15 18 -13 21 4 19 22 -2 26 -10 2 -16 -3 -16
-13z"/>
<path d="M4110 1170 c0 -13 5 -20 13 -17 6 2 12 10 12 17 0 7 -6 15 -12 18 -8
2 -13 -5 -13 -18z"/>
<path d="M1020 1150 c0 -5 5 -10 10 -10 6 0 10 5 10 10 0 6 -4 10 -10 10 -5 0
-10 -4 -10 -10z"/>
<path d="M4044 1099 c-3 -6 -1 -16 5 -22 9 -9 14 -8 21 3 9 15 4 30 -10 30 -5
0 -12 -5 -16 -11z"/>
<path d="M950 1076 c0 -2 8 -10 18 -17 15 -13 16 -12 3 4 -13 16 -21 21 -21
13z"/>
<path d="M3975 1021 c-7 -12 12 -24 25 -16 11 7 4 25 -10 25 -5 0 -11 -4 -15
-9z"/>
<path d="M3900 945 c0 -8 7 -15 15 -15 8 0 15 7 15 15 0 8 -7 15 -15 15 -8 0
-15 -7 -15 -15z"/>
<path d="M3830 874 c0 -9 5 -14 12 -12 18 6 21 28 4 28 -9 0 -16 -7 -16 -16z"/>
<path d="M1300 870 c0 -5 5 -10 10 -10 6 0 10 5 10 10 0 6 -4 10 -10 10 -5 0
-10 -4 -10 -10z"/>
<path d="M3750 815 c0 -8 7 -15 15 -15 8 0 15 7 15 15 0 8 -7 15 -15 15 -8 0
-15 -7 -15 -15z"/>
<path d="M1393 804 c-7 -19 2 -28 22 -21 19 8 19 23 0 31 -9 3 -18 -1 -22 -10z"/>
<path d="M3670 754 c0 -9 5 -14 12 -12 18 6 21 28 4 28 -9 0 -16 -7 -16 -16z"/>
<path d="M3590 705 c0 -8 7 -15 15 -15 8 0 15 7 15 15 0 8 -7 15 -15 15 -8 0
-15 -7 -15 -15z"/>
<path d="M1584 679 c-10 -17 13 -36 27 -22 12 12 4 33 -11 33 -5 0 -12 -5 -16
-11z"/>
<path d="M3510 654 c0 -9 5 -14 12 -12 18 6 21 28 4 28 -9 0 -16 -7 -16 -16z"/>
<path d="M3422 618 c6 -18 28 -21 28 -4 0 9 -7 16 -16 16 -9 0 -14 -5 -12 -12z"/>
<path d="M3330 575 c0 -10 7 -15 18 -13 21 4 19 22 -2 26 -10 2 -16 -3 -16
-13z"/>
<path d="M3242 539 c2 -6 8 -10 13 -10 5 0 11 4 13 10 2 6 -4 11 -13 11 -9 0
-15 -5 -13 -11z"/>
<path d="M3145 511 c-3 -5 -1 -12 5 -16 12 -7 30 2 30 16 0 12 -27 12 -35 0z"/>
<path d="M3050 490 c-12 -7 -12 -12 -2 -22 9 -9 15 -9 24 0 16 16 -2 34 -22
22z"/>
<path d="M2943 458 c2 -7 10 -13 17 -13 7 0 15 6 18 13 2 7 -5 12 -18 12 -13
0 -20 -5 -17 -12z"/>
<path d="M2846 453 c-12 -12 -6 -33 9 -33 8 0 15 6 15 14 0 17 -14 28 -24 19z"/>
<path d="M2260 440 c0 -5 5 -10 10 -10 6 0 10 5 10 10 0 6 -4 10 -10 10 -5 0
-10 -4 -10 -10z"/>
<path d="M2662 424 c4 -21 22 -23 26 -1 2 10 -3 17 -13 17 -10 0 -15 -6 -13
-16z"/>
<path d="M2450 420 c0 -5 5 -10 10 -10 6 0 10 5 10 10 0 6 -4 10 -10 10 -5 0
-10 -4 -10 -10z"/>
</g>
</svg>
