<?xml version="1.0" standalone="no"?>
<!DOCTYPE svg PUBLIC "-//W3C//DTD SVG 20010904//EN"
 "http://www.w3.org/TR/2001/REC-SVG-20010904/DTD/svg10.dtd">
<svg version="1.0" xmlns="http://www.w3.org/2000/svg"
 width="2000.000000pt" height="2000.000000pt" viewBox="0 0 2000.000000 2000.000000"
 preserveAspectRatio="xMidYMid meet">

<g transform="translate(0.000000,2000.000000) scale(0.100000,-0.100000)"
fill="#000000" stroke="none">
<path d="M0 9995 l0 -9995 10000 0 10000 0 0 9995 0 9995 -10000 0 -10000 0 0
-9995z m10321 6763 c-12 -79 -39 -289 -62 -468 -22 -179 -45 -354 -50 -390
-17 -124 -22 -175 -17 -170 3 3 29 59 58 125 62 143 292 616 297 612 2 -2 -10
-66 -26 -143 -16 -76 -48 -258 -70 -404 -23 -146 -46 -294 -52 -329 -13 -69
-7 -81 37 -81 19 0 27 16 59 105 21 58 40 104 42 101 3 -2 0 -44 -6 -93 -6
-48 -11 -95 -11 -104 0 -14 17 -18 88 -25 l87 -8 -90 -8 c-49 -5 -90 -10 -92
-11 -1 -2 -16 -90 -32 -197 -33 -210 -66 -403 -102 -597 l-22 -122 58 -113
c32 -62 98 -192 148 -288 49 -96 154 -287 232 -425 427 -751 754 -1370 1083
-2050 101 -209 187 -383 190 -386 4 -4 221 54 482 127 841 237 1342 376 1345
372 2 -2 -139 -61 -313 -132 -361 -148 -1393 -576 -1404 -583 -5 -2 1 -21 12
-43 l20 -38 97 35 c447 162 1045 355 1509 488 357 103 1087 285 1070 267 -3
-2 -179 -82 -393 -177 -213 -95 -469 -210 -568 -254 -99 -45 -237 -107 -307
-139 -70 -31 -126 -57 -125 -59 2 -1 84 24 183 57 496 162 1202 346 1759 460
215 44 649 120 681 120 10 0 -44 -25 -121 -54 -183 -70 -316 -127 -800 -341
-925 -410 -1518 -658 -2170 -910 -342 -132 -431 -169 -370 -153 11 3 124 34
250 68 298 80 1465 364 1471 357 6 -5 -899 -463 -1423 -721 -123 -61 -223
-114 -223 -118 0 -20 71 -148 83 -148 6 0 55 9 107 19 52 10 118 22 145 25 49
6 49 6 -61 -51 -62 -32 -122 -65 -135 -74 l-23 -16 188 -389 c104 -214 231
-480 284 -591 53 -112 99 -203 103 -203 11 0 136 159 224 285 245 350 428 758
436 975 l1 35 9 -40 c28 -137 -11 -426 -91 -665 -83 -247 -198 -479 -372 -746
-52 -81 -76 -127 -72 -138 4 -9 10 -16 15 -14 21 7 198 234 284 363 268 403
503 937 635 1440 34 130 34 133 15 -161 -17 -258 -36 -428 -65 -576 -11 -56
-18 -103 -16 -105 6 -6 86 264 121 407 50 206 101 473 126 657 28 207 31 531
6 642 -9 41 -15 76 -13 79 7 6 47 -109 72 -207 45 -175 58 -313 58 -606 -1
-572 -86 -1043 -281 -1555 -131 -345 -305 -647 -557 -969 -55 -70 -64 -86 -55
-103 10 -19 12 -19 29 -3 11 10 55 63 98 119 476 608 781 1310 957 2206 53
275 54 276 49 80 -14 -483 -62 -828 -164 -1160 -21 -68 -37 -126 -36 -128 4
-3 79 182 138 338 75 202 149 487 182 705 2 17 3 -64 1 -180 -12 -786 -341
-1649 -899 -2361 l-95 -122 127 -253 c208 -414 463 -967 654 -1419 104 -246
269 -573 438 -870 190 -333 204 -358 188 -340 -7 9 -202 267 -433 575 -397
529 -577 780 -725 1010 -73 115 -91 137 -62 80 167 -334 353 -757 507 -1152
47 -123 158 -390 245 -595 88 -204 159 -373 157 -374 -1 -2 -77 102 -167 229
-91 128 -280 385 -420 572 -314 418 -378 506 -519 714 -61 90 -111 162 -111
159 0 -3 11 -30 24 -59 13 -30 56 -139 96 -244 83 -217 161 -396 249 -574 34
-68 60 -126 57 -128 -2 -2 -34 39 -71 92 -118 169 -237 325 -395 515 -84 102
-207 257 -273 345 -65 88 -123 164 -128 169 -5 6 23 -51 62 -125 102 -191 448
-888 556 -1119 115 -245 154 -328 375 -785 98 -203 172 -363 164 -355 -7 8
-106 131 -219 272 -709 887 -1146 1544 -1543 2315 -60 117 -112 213 -115 213
-4 0 -49 -25 -100 -56 -129 -76 -468 -242 -614 -299 -357 -141 -725 -231
-1130 -277 -155 -18 -627 -15 -850 5 -312 28 -325 30 -325 38 0 5 42 9 93 9
519 0 1214 137 1747 345 247 96 672 300 775 371 30 21 9 17 -43 -10 -83 -42
-394 -163 -543 -211 -679 -220 -1204 -269 -1966 -183 -106 12 -192 23 -190 24
1 2 104 8 227 14 276 13 518 35 669 61 117 20 343 70 338 75 -2 2 -70 -6 -152
-16 -254 -33 -551 -45 -785 -32 -399 22 -780 86 -1038 174 -50 17 -90 33 -89
35 2 2 37 -1 78 -7 126 -18 495 -32 684 -25 646 22 1127 111 1755 323 199 68
446 168 539 218 57 31 49 28 -124 -41 -435 -176 -923 -301 -1365 -350 -174
-19 -559 -30 -615 -18 l-40 9 65 8 c555 62 1154 256 1710 556 140 74 330 188
330 196 0 2 -44 -17 -97 -42 -166 -78 -353 -151 -493 -193 -128 -39 -588 -146
-596 -139 -2 2 38 21 89 42 173 72 572 275 753 384 155 93 473 308 568 385
l29 23 -93 190 c-219 449 -355 746 -565 1239 -54 127 -101 234 -106 239 -5 5
-41 -6 -86 -26 -417 -191 -1099 -421 -1758 -593 -187 -49 -478 -132 -516 -148
l-31 -12 -289 -1160 c-159 -638 -361 -1423 -449 -1745 -192 -706 -286 -1062
-380 -1440 -71 -286 -94 -364 -85 -285 3 22 19 168 35 325 17 157 53 476 80
710 27 234 65 569 85 745 20 176 47 406 61 510 38 296 38 292 13 210 -11 -38
-59 -205 -105 -370 -47 -165 -211 -678 -363 -1140 -153 -462 -334 -1024 -402
-1248 -68 -225 -125 -402 -127 -394 -2 8 27 246 63 528 37 283 73 564 81 624
13 106 78 657 90 760 77 704 192 1212 547 2410 120 403 227 771 227 779 0 6
-49 -13 -62 -24 -10 -7 -95 -310 -259 -920 -279 -1037 -420 -1508 -674 -2260
-164 -482 -464 -1314 -472 -1307 -2 2 13 112 32 243 20 131 41 268 46 304 91
612 298 1659 435 2199 24 96 44 177 44 180 0 11 -123 -255 -195 -424 -145
-339 -318 -835 -471 -1354 -38 -128 -70 -227 -72 -219 -2 8 15 127 38 264 22
137 63 386 90 554 28 168 57 346 65 395 23 141 52 351 80 585 51 427 122 794
224 1165 28 98 48 181 46 183 -2 2 -113 -32 -247 -77 -134 -44 -466 -148 -738
-231 -272 -83 -591 -183 -709 -221 -117 -39 -215 -69 -217 -67 -1 2 70 40 159
86 195 99 460 236 737 382 275 144 658 335 915 455 116 54 215 102 221 107 13
10 39 96 32 103 -3 3 -113 -40 -244 -96 -584 -247 -834 -348 -1212 -490 -301
-113 -447 -159 -942 -294 -381 -104 -585 -168 -939 -294 -124 -44 -226 -79
-227 -78 -2 2 61 36 139 76 435 226 561 298 1017 581 392 244 564 341 852 483
136 66 246 122 244 124 -1 2 -106 -33 -232 -76 -126 -44 -283 -96 -349 -116
-350 -107 -454 -141 -595 -192 -85 -30 -162 -58 -170 -61 -8 -2 78 50 192 116
114 67 294 177 400 245 236 151 467 284 783 450 418 220 900 428 1537 663 74
27 77 29 87 68 5 22 9 42 7 43 -2 2 -99 -32 -217 -76 -118 -43 -473 -172 -789
-286 -553 -198 -1263 -461 -1364 -505 -27 -11 -50 -19 -52 -17 -5 4 362 217
616 357 534 296 1128 593 1730 866 113 51 208 99 212 106 4 7 44 123 88 258
44 135 127 371 185 525 62 164 136 386 180 535 181 627 503 1554 980 2815 91
242 164 449 162 460 -6 28 -158 549 -162 553 -2 3 -126 -44 -441 -166 -100
-39 -273 -98 -385 -132 -112 -34 -242 -76 -289 -95 -79 -31 -83 -32 -55 -9 68
55 259 177 366 233 209 109 408 164 655 180 74 5 138 11 140 13 3 4 -19 94
-42 170 -6 19 -3 20 -479 -184 -154 -66 -356 -151 -450 -188 -620 -248 -777
-320 -975 -449 l-125 -82 146 143 c81 79 192 181 247 228 55 47 99 86 98 87
-4 5 -222 -114 -331 -180 -113 -68 -235 -151 -312 -215 -29 -23 -53 -40 -53
-37 0 12 123 151 239 269 133 136 131 137 -44 18 -386 -262 -727 -555 -1138
-975 l-177 -182 203 300 c214 317 283 413 410 563 43 52 77 96 74 98 -8 8
-602 -583 -730 -726 -71 -80 -184 -217 -250 -304 -67 -87 -130 -168 -139 -180
-20 -23 48 126 137 304 336 671 807 1220 1415 1648 325 228 693 421 990 518
84 28 262 74 282 74 7 0 -32 -24 -88 -53 -143 -76 -280 -159 -403 -245 -108
-76 -308 -229 -317 -243 -2 -4 43 21 100 56 399 244 943 444 1557 570 95 20
175 38 178 40 4 4 -76 354 -96 425 -3 8 33 -57 80 -145 47 -88 98 -183 113
-212 l29 -52 45 6 c25 3 46 7 48 8 4 4 -214 723 -242 799 -15 38 -25 71 -23
73 11 10 254 -361 447 -680 93 -153 96 -157 125 -152 17 2 66 7 110 10 l80 5
-92 -32 c-51 -18 -93 -35 -93 -38 0 -3 17 -34 38 -70 37 -64 38 -65 80 -65
l42 0 168 420 c188 470 395 959 400 945 2 -5 -6 -73 -17 -152z m1538 -1304
c461 -58 747 -140 1126 -323 302 -146 732 -416 985 -618 592 -473 1046 -1137
1336 -1952 25 -68 43 -128 42 -133 -2 -5 -21 22 -42 59 -61 107 -201 318 -294
443 -164 221 -466 587 -416 505 249 -414 407 -779 477 -1105 43 -199 42 -206
-10 -85 -131 299 -399 714 -653 1010 -115 133 -271 296 -361 376 l-68 60 92
-138 c151 -226 266 -468 341 -716 20 -65 36 -123 36 -128 0 -6 -26 25 -58 68
-187 251 -468 539 -802 817 l-24 21 14 -21 c8 -12 53 -68 98 -124 46 -57 120
-158 165 -224 44 -67 106 -155 137 -196 126 -167 267 -403 337 -564 36 -82
146 -407 140 -413 -2 -1 -35 37 -73 85 -131 163 -527 574 -480 498 124 -200
199 -374 240 -555 17 -73 17 -73 -52 30 -70 102 -208 256 -323 359 -169 153
-689 576 -689 561 0 -5 66 -76 148 -158 159 -161 227 -248 321 -418 54 -96
119 -261 108 -272 -2 -2 -15 14 -29 34 -59 88 -243 262 -438 414 -119 93 -491
365 -455 333 276 -244 425 -432 555 -699 48 -98 120 -280 120 -302 0 -2 -57
54 -126 126 -70 73 -186 182 -258 244 -849 729 -915 782 -1223 981 -68 44
-121 81 -119 83 1 2 65 -8 140 -22 258 -48 538 -158 744 -294 50 -33 92 -59
92 -56 0 14 -488 355 -632 441 -51 31 -86 54 -78 51 9 -3 50 -14 91 -26 41
-11 115 -34 164 -51 49 -16 91 -30 94 -30 21 0 -398 240 -597 342 -84 43 -151
78 -148 78 22 0 309 -45 381 -59 50 -10 101 -19 115 -19 14 -1 36 -4 50 -7 52
-13 -2 17 -300 168 -297 150 -558 274 -710 337 l-75 31 145 -6 c222 -8 441
-43 679 -106 62 -16 115 -28 117 -26 12 12 -557 267 -596 267 -7 0 -11 2 -8 5
9 9 359 -44 467 -70 53 -13 97 -22 99 -20 11 10 -332 144 -513 200 -248 77
-365 103 -625 138 -67 9 196 19 345 13 418 -16 916 -123 1284 -275 41 -17 75
-30 77 -29 6 7 -246 150 -411 234 -133 67 -198 95 -250 105 -59 11 -65 14 -40
19 26 5 16 11 -87 50 -65 25 -114 46 -109 48 19 6 476 -80 629 -118 86 -22
223 -62 305 -89 81 -27 147 -48 147 -46 0 2 -55 33 -122 69 -326 172 -671 295
-1039 371 -176 36 -418 74 -484 76 l-40 1 40 10 c24 7 208 11 470 12 363 1
450 -2 555 -17 288 -41 566 -111 794 -202 61 -24 112 -42 114 -41 10 10 -250
162 -438 256 -266 133 -480 206 -1035 354 -45 12 194 -7 374 -30z m-3070 -978
c-2 -2 -44 -20 -94 -41 -126 -51 -378 -179 -515 -260 -393 -233 -739 -504
-1100 -863 -159 -159 -170 -171 -75 -87 206 182 444 352 669 480 321 182 669
334 891 391 33 8 69 17 80 20 11 3 -16 -15 -60 -39 -275 -151 -608 -382 -872
-605 -152 -129 -182 -162 -67 -75 280 212 638 411 899 499 27 9 34 9 21 1
-418 -261 -912 -714 -1260 -1157 -33 -41 -64 -82 -70 -90 -5 -8 50 44 124 116
206 199 381 331 615 464 l110 62 -145 -149 c-352 -358 -655 -785 -997 -1398
-252 -451 -383 -760 -473 -1110 l-39 -150 0 65 c-2 231 69 642 159 923 17 55
29 101 27 103 -14 14 -169 -415 -243 -670 -92 -320 -144 -612 -182 -1041 l-18
-200 -17 110 c-90 576 -54 1139 108 1700 18 66 32 121 31 123 -5 5 -119 -308
-169 -463 -57 -179 -127 -457 -166 -655 -66 -344 -91 -587 -98 -980 -8 -353
-7 -353 -58 -61 -39 226 -55 428 -55 710 0 585 81 1047 275 1581 37 102 85
226 107 275 81 185 46 136 -50 -70 -231 -496 -416 -1089 -506 -1626 -54 -317
-61 -410 -61 -807 l0 -374 -42 169 c-91 372 -117 608 -110 1008 5 317 22 506
68 770 16 94 32 184 34 200 8 53 -73 -197 -111 -341 -20 -76 -56 -224 -80
-329 l-44 -190 4 315 c6 345 19 496 67 735 111 556 315 1033 613 1429 235 312
577 650 916 905 47 35 91 69 99 75 27 20 -1 -16 -135 -180 -175 -213 -326
-415 -460 -614 -132 -197 -139 -210 -83 -145 230 264 496 507 768 705 570 414
1077 668 1606 805 117 31 176 42 164 31z m-180 -1170 c-2 -2 -42 -34 -89 -71
-258 -207 -561 -539 -768 -843 -187 -276 -484 -794 -687 -1202 -180 -361 -227
-464 -294 -655 -11 -33 -10 6 9 265 53 716 314 1329 762 1796 280 290 573 493
978 675 81 37 99 44 89 35z m-2751 -258 c-8 -13 -66 -111 -128 -218 -107 -186
-236 -388 -266 -420 -13 -13 -13 -10 0 25 78 219 194 416 326 558 73 78 94 95
68 55z m2361 -570 c-23 -42 -176 -273 -207 -311 -17 -21 -57 -67 -91 -102 -57
-61 -59 -62 -44 -27 35 86 106 212 156 277 43 56 178 185 194 185 2 0 -2 -10
-8 -22z m4527 -240 c46 -48 74 -87 74 -103 0 -12 -177 162 -192 189 -15 28 68
-32 118 -86z m-7647 -433 c-62 -257 -105 -514 -128 -765 -14 -144 -42 -642
-37 -647 2 -2 7 9 10 24 19 80 70 243 76 243 8 0 42 -258 66 -500 23 -224 23
-595 1 -810 -10 -91 -18 -194 -20 -230 l-2 -65 -43 120 c-24 66 -59 181 -78
255 -19 74 -37 140 -39 145 -7 16 1 -658 9 -680 3 -11 -8 9 -25 45 -69 145
-172 490 -219 735 -19 101 -50 334 -50 379 0 11 -2 17 -5 14 -6 -5 9 -599 25
-1013 9 -238 17 -331 36 -425 6 -30 -61 107 -116 235 -154 362 -242 800 -244
1215 -1 341 54 691 160 1008 50 150 206 507 199 457 -21 -163 -50 -639 -58
-970 -3 -117 -2 -135 5 -85 5 36 15 111 23 167 42 302 145 624 297 927 54 109
168 309 173 304 2 -2 -5 -39 -16 -83z m10556 -635 c119 -141 169 -220 236
-375 135 -309 215 -647 236 -993 7 -111 8 -114 15 -62 13 89 12 563 -1 695
-15 142 -53 373 -81 493 -11 47 -18 87 -16 89 7 7 161 -316 210 -439 214 -545
254 -1294 101 -1899 -128 -505 -420 -1048 -804 -1492 -175 -202 -422 -436
-621 -587 l-85 -64 65 73 c384 430 736 1027 936 1586 24 65 42 121 40 122 -2
2 -16 -27 -31 -64 -45 -110 -168 -350 -230 -453 -239 -394 -547 -727 -901
-975 -62 -44 -136 -92 -163 -107 -42 -24 -30 -10 91 110 284 278 460 518 629
860 78 157 101 224 44 125 -212 -363 -569 -751 -897 -975 -32 -21 -58 -36 -58
-33 0 3 29 40 65 83 231 274 445 645 598 1032 220 557 348 1098 387 1625 36
495 -22 1283 -115 1560 -13 39 -22 72 -20 74 9 8 121 -178 170 -282 178 -377
300 -846 335 -1292 7 -77 13 -141 14 -143 2 -1 10 57 17 130 9 83 14 244 13
428 0 284 -1 302 -33 495 -57 351 -111 525 -220 710 -58 100 -52 95 74 -55z
m-10430 -1146 c80 -379 84 -435 56 -949 l-6 -120 -42 150 c-61 218 -80 299
-98 405 -17 107 -19 290 -5 425 11 106 42 306 47 302 2 -2 23 -98 48 -213z
m3345 -4741 c290 -93 854 -203 1226 -238 359 -33 1028 -52 1299 -36 422 26
894 98 1305 201 137 34 131 28 -79 -79 -257 -131 -542 -238 -866 -325 -71 -19
-123 -35 -115 -35 22 -1 278 36 405 58 61 11 193 32 295 46 156 22 396 67 490
91 14 4 23 5 20 2 -3 -3 -169 -89 -370 -190 -571 -289 -860 -390 -1295 -454
-162 -24 -514 -24 -715 0 -508 60 -954 217 -1517 534 -84 47 -152 87 -150 88
1 2 50 -8 107 -22 184 -44 489 -102 675 -128 286 -41 285 -41 115 18 -268 92
-473 183 -685 306 -109 62 -341 216 -351 232 -3 4 19 -1 48 -13 29 -12 100
-37 158 -56z m3690 -703 c-41 -32 -416 -244 -545 -308 -353 -176 -557 -230
-906 -239 -221 -6 -361 5 -541 43 -104 22 -327 91 -368 114 -8 5 39 6 110 3
214 -10 426 15 1115 133 416 71 530 93 680 130 103 26 457 132 464 140 2 2 7
4 10 4 3 0 -5 -9 -19 -20z"/>
<path d="M9290 15570 c-24 -15 11 -66 42 -62 30 5 30 4 17 40 -11 33 -31 40
-59 22z"/>
<path d="M9052 15478 c-29 -12 -51 -22 -49 -24 2 -2 31 2 65 8 39 7 62 16 62
25 0 17 -15 16 -78 -9z"/>
<path d="M10376 15433 c-20 -100 -37 -205 -34 -209 3 -2 25 50 50 116 l45 120
-28 0 c-22 0 -28 -5 -33 -27z"/>
<path d="M9125 15233 c-61 -19 -59 -17 -45 -42 9 -18 20 -21 72 -21 l61 0 -7
31 c-3 17 -6 35 -6 40 0 12 -15 10 -75 -8z"/>
<path d="M8910 15165 c-37 -14 -22 -19 29 -9 17 4 28 10 25 15 -7 11 -11 11
-54 -6z"/>
<path d="M9193 15077 c-18 -7 -33 -16 -33 -22 0 -11 183 -355 187 -351 2 1
-15 63 -37 137 -21 74 -46 160 -55 192 -9 31 -19 57 -23 56 -4 0 -22 -6 -39
-12z"/>
<path d="M9891 12450 c-6 -30 -24 -131 -40 -225 -16 -93 -66 -375 -110 -625
-83 -469 -200 -1163 -197 -1167 1 -1 101 35 221 81 121 46 353 132 515 191
162 60 299 112 304 116 4 4 -32 110 -82 236 -100 252 -225 586 -297 793 -26
74 -54 142 -61 151 -8 8 -31 58 -52 110 -22 52 -73 161 -114 244 l-76 150 -11
-55z"/>
<path d="M10435 10374 c-148 -57 -425 -164 -614 -237 l-344 -132 -18 -43 c-11
-24 -29 -47 -44 -54 -21 -9 -36 -38 -20 -38 3 0 168 66 368 146 199 80 502
202 672 271 171 69 314 128 318 132 12 12 -14 61 -32 60 -9 0 -137 -47 -286
-105z"/>
<path d="M9155 10353 c-4 -21 -9 -46 -12 -56 -4 -14 0 -18 14 -15 14 2 19 14
21 56 4 60 -14 71 -23 15z"/>
<path d="M12320 9730 c0 -18 30 -70 40 -70 13 0 13 7 -2 47 -11 30 -38 47 -38
23z"/>
<path d="M8529 9574 c-9 -30 -13 -54 -9 -54 8 0 35 98 28 105 -2 2 -10 -21
-19 -51z"/>
<path d="M12456 9451 c-3 -5 31 -85 75 -177 130 -273 562 -1144 566 -1141 2 2
-60 138 -138 303 -78 164 -196 418 -264 564 -208 450 -223 477 -239 451z"/>
<path d="M9500 8556 c-173 -73 -340 -144 -371 -158 l-56 -26 -18 -77 c-9 -42
-15 -78 -13 -81 5 -4 336 193 410 244 24 16 119 75 212 131 94 55 166 101 160
100 -5 0 -151 -60 -324 -133z"/>
<path d="M8228 8518 c-23 -8 -47 -52 -35 -65 11 -10 56 22 62 44 7 31 6 32
-27 21z"/>
<path d="M12670 13036 c0 -2 8 -10 18 -17 15 -13 16 -12 3 4 -13 16 -21 21
-21 13z"/>
</g>
</svg>
