<?xml version="1.0" standalone="no"?>
<!DOCTYPE svg PUBLIC "-//W3C//DTD SVG 20010904//EN"
 "http://www.w3.org/TR/2001/REC-SVG-20010904/DTD/svg10.dtd">
<svg version="1.0" xmlns="http://www.w3.org/2000/svg"
 width="600.000000pt" height="376.000000pt" viewBox="0 0 600.000000 376.000000"
 preserveAspectRatio="xMidYMid meet">

<g transform="translate(0.000000,376.000000) scale(0.100000,-0.100000)"
fill="#000000" stroke="none">
<path d="M0 1880 l0 -1880 3000 0 3000 0 0 1880 0 1880 -3000 0 -3000 0 0
-1880z m4750 1125 c0 -8 -4 -15 -10 -15 -5 0 -10 7 -10 15 0 8 5 15 10 15 6 0
10 -7 10 -15z m-1698 -81 c164 -72 248 -166 309 -343 26 -74 23 -86 -6 -26
-35 72 -31 39 5 -40 42 -93 37 -95 -10 -3 -47 91 -116 170 -130 148 -5 -9 -5
-19 2 -28 8 -9 8 -16 0 -24 -9 -9 -12 -8 -12 5 0 9 -5 17 -11 17 -5 0 -9 -3
-7 -7 2 -5 9 -19 15 -33 6 -14 44 -92 84 -173 39 -81 69 -150 67 -153 -3 -2
-15 19 -28 48 -39 94 -113 201 -191 281 -43 42 -80 77 -83 77 -11 0 -3 -55 10
-70 7 -8 32 -55 55 -105 59 -126 123 -221 192 -284 55 -51 85 -95 107 -159 10
-26 9 -26 -5 -7 -52 67 -69 85 -80 85 -7 0 -18 6 -24 14 -7 8 -32 24 -57 35
-42 20 -58 41 -32 41 6 0 3 7 -8 16 -10 8 -13 13 -6 9 18 -9 15 10 -5 26 -9 8
-29 34 -45 58 -15 25 -28 41 -28 36 0 -19 -32 36 -36 63 -3 15 -16 44 -30 65
-13 20 -21 37 -18 37 4 0 -5 15 -20 34 -14 19 -26 41 -26 48 0 10 -2 10 -8 0
-13 -19 -71 4 -69 28 1 10 6 16 12 12 30 -19 45 -3 26 27 -8 12 -12 13 -25 1
-14 -11 -16 -10 -10 4 3 9 1 16 -5 16 -7 0 -10 -11 -8 -27 6 -41 -21 -85 -59
-97 -22 -7 -65 -55 -106 -121 -14 -22 -46 -65 -72 -95 -39 -46 -44 -55 -29
-61 16 -5 16 -7 -2 -17 -18 -10 -18 -11 -2 -12 16 0 16 -1 -1 -17 -23 -22 -50
-40 -79 -53 -22 -9 -102 -110 -129 -162 -8 -16 -19 -28 -24 -28 -9 0 72 136
161 269 27 40 49 77 49 82 0 5 5 9 10 9 6 0 15 10 20 23 6 12 21 40 34 62 13
22 22 43 20 47 -3 4 5 12 16 18 11 6 18 15 15 21 -4 5 -1 9 4 9 6 0 11 11 11
25 0 28 -5 26 -50 -19 -23 -23 -25 -12 -5 24 8 14 14 19 15 11 0 -8 2 -12 5
-10 2 3 2 15 -2 27 -13 53 -75 3 -141 -115 -25 -46 -47 -81 -49 -79 -2 2 9 32
26 67 16 34 27 67 24 72 -3 6 -2 7 4 4 6 -4 15 5 22 20 11 23 10 25 -3 13 -20
-16 -20 -7 -1 33 15 31 15 31 -19 -8 -20 -22 -36 -37 -36 -34 0 4 13 39 29 78
46 113 116 187 236 248 118 60 144 62 247 17z m-2724 -607 c2 -304 0 -347 -13
-347 -13 0 -15 44 -15 351 0 276 3 350 13 347 9 -4 13 -85 15 -351z m764 286
c3 -16 7 -35 9 -43 3 -9 -5 -16 -20 -18 -21 -3 -23 -1 -18 20 4 12 7 33 7 46
0 31 17 28 22 -5z m3258 -63 c0 -5 -4 -10 -10 -10 -5 0 -10 5 -10 10 0 6 5 10
10 10 6 0 10 -4 10 -10z m-418 -92 c-7 -7 -10 -5 -7 8 5 29 6 30 12 16 3 -8 1
-18 -5 -24z m418 -9 c0 -6 -4 -7 -10 -4 -5 3 -10 11 -10 16 0 6 5 7 10 4 6 -3
10 -11 10 -16z m-3 -104 c0 -8 -4 -12 -9 -9 -4 3 -8 9 -8 15 0 5 4 9 8 9 5 0
9 -7 9 -15z m-2232 -378 c-1 -257 -2 -277 -12 -277 -5 0 -7 30 -6 67 1 38 2
152 2 256 1 103 4 187 9 187 4 0 7 -105 7 -233z m-335 189 c0 -14 -4 -28 -10
-31 -6 -4 -10 7 -10 24 0 17 5 31 10 31 6 0 10 -11 10 -24z m190 -5 c0 -11 -4
-23 -10 -26 -6 -4 -10 5 -10 19 0 14 5 26 10 26 6 0 10 -9 10 -19z m-180 -135
c0 -2 -7 -19 -15 -37 l-14 -34 -1 31 c0 17 3 34 7 37 7 8 23 9 23 3z m174 -58
c4 -17 2 -28 -4 -28 -5 0 -10 14 -10 32 0 36 4 35 14 -4z m-1634 -151 c0 -80
-3 -98 -12 -89 -14 14 -24 161 -14 188 15 38 26 -5 26 -99z m1450 69 c0 -18 3
-61 6 -95 6 -52 5 -61 -10 -61 -14 0 -16 14 -16 95 0 57 4 95 10 95 6 0 10
-15 10 -34z m190 -55 c0 -50 -4 -93 -10 -96 -6 -4 -10 28 -10 89 0 57 4 96 10
96 6 0 10 -36 10 -89z m2380 -56 c0 -37 -4 -65 -10 -65 -11 0 -14 113 -3 123
12 13 13 7 13 -58z m-736 -40 c-4 -8 -8 -15 -10 -15 -2 0 -4 7 -4 15 0 8 4 15
10 15 5 0 7 -7 4 -15z m1866 -16 c0 -5 -7 -9 -15 -9 -15 0 -20 12 -9 23 8 8
24 -1 24 -14z m-1765 -13 c-16 -7 -42 -30 -56 -50 -23 -32 -28 -35 -39 -21 -8
10 -9 15 -2 15 6 0 9 7 6 15 -4 10 0 15 15 15 12 0 21 4 21 8 0 12 40 31 65
31 15 0 12 -3 -10 -13z m75 1 c0 -7 10 -17 23 -22 12 -6 21 -16 20 -23 -2 -6
4 -9 11 -6 11 4 13 0 9 -16 -3 -11 -8 -18 -11 -15 -3 2 -10 -5 -17 -18 -6 -12
-17 -21 -23 -19 -7 1 -12 -2 -12 -8 0 -5 -4 -10 -10 -10 -5 0 0 21 10 46 25
57 25 61 0 69 -20 6 -28 35 -10 35 6 0 10 -6 10 -13z m-2690 -67 c0 -49 -3
-61 -20 -70 -19 -10 -20 -8 -20 48 0 53 11 82 32 82 4 0 8 -27 8 -60z m2676
27 c2 -15 0 -16 -14 -5 -10 8 -13 9 -9 1 9 -15 -7 -25 -28 -17 -14 6 -14 8 1
26 21 22 46 20 50 -5z m-1456 3 c0 -5 -7 -7 -15 -4 -8 4 -15 8 -15 10 0 2 7 4
15 4 8 0 15 -4 15 -10z m1574 -56 c-47 -46 -69 -53 -41 -13 16 22 65 59 80 59
4 0 -14 -20 -39 -46z m-159 16 c3 -5 1 -10 -4 -10 -6 0 -11 -6 -11 -14 0 -8
-7 -16 -15 -20 -18 -6 -18 -5 -5 28 10 27 24 33 35 16z m-1955 -41 c0 -18 -4
-28 -10 -24 -5 3 -10 20 -10 36 0 18 4 28 10 24 6 -3 10 -20 10 -36z m490 5
c0 -8 -4 -12 -10 -9 -5 3 -10 13 -10 21 0 8 5 12 10 9 6 -3 10 -13 10 -21z
m1735 16 c6 0 -7 -11 -27 -24 -21 -12 -35 -26 -31 -29 3 -4 -7 -6 -23 -6 -16
1 -22 3 -14 5 8 3 22 18 32 34 10 18 23 27 35 25 10 -2 23 -4 28 -5z m-130
-55 c6 -2 -419 -4 -942 -4 -524 -1 -953 2 -953 7 0 7 1876 5 1895 -3z m196
-12 c7 -7 3 -9 -14 -6 -18 4 -28 -1 -36 -15 -10 -19 -8 -20 32 -16 l42 4 -40
-19 c-22 -11 -43 -20 -47 -20 -8 -1 -3 62 6 78 8 13 42 9 57 -6z m69 -70 c-1
-5 -32 -32 -70 -61 -47 -35 -70 -48 -70 -38 0 9 14 22 30 31 17 9 30 18 30 21
0 3 -6 2 -12 -2 -29 -17 5 11 39 32 40 25 53 29 53 17z m603 -46 c-2 -15 7
-33 29 -56 l32 -34 -27 7 c-35 8 -41 -6 -28 -65 8 -33 7 -55 -3 -83 -10 -28
-15 -34 -20 -21 -8 22 -8 280 1 288 10 11 20 -12 16 -36z m-614 -48 c-33 -24
-38 -14 -8 17 15 16 25 21 28 13 2 -6 -7 -20 -20 -30z m131 -43 c0 -2 -7 -7
-16 -10 -8 -3 -12 -2 -9 4 6 10 25 14 25 6z m-91 -50 c-2 -2 -15 -9 -29 -15
-24 -11 -24 -11 -6 3 16 13 49 24 35 12z m11 -126 c-20 -13 -33 -13 -25 0 3 6
14 10 23 10 15 0 15 -2 2 -10z m560 -65 c0 -8 -4 -15 -10 -15 -5 0 -10 7 -10
15 0 8 5 15 10 15 6 0 10 -7 10 -15z m-297 -102 c-7 -2 -21 -2 -30 0 -10 3 -4
5 12 5 17 0 24 -2 18 -5z m-308 -73 c-3 -5 -12 -10 -18 -10 -7 0 -6 4 3 10 19
12 23 12 15 0z m270 -100 c-3 -5 -14 -10 -23 -10 -15 0 -15 2 -2 10 20 13 33
13 25 0z m-2525 -43 c0 6 9 9 20 6 30 -8 24 -24 -7 -20 -15 2 -29 10 -31 18
-3 11 -1 11 7 -1 6 -9 11 -10 11 -3z m2367 -12 c-8 -5 -57 -10 -110 -10 -53 1
-93 -3 -90 -8 3 -4 11 -6 19 -3 8 3 11 0 7 -9 -4 -12 -10 -11 -33 5 -15 11
-39 21 -52 22 -24 2 184 14 240 14 26 0 30 -3 19 -11z m-225 -75 c28 -27 48
-55 46 -62 -3 -8 -32 -17 -71 -22 -66 -9 -67 -10 -68 -40 0 -17 -3 -25 -6 -18
-2 6 -13 12 -24 12 -12 0 -19 7 -19 18 0 12 -9 18 -27 20 -34 3 -39 8 -23 27
18 22 90 20 91 -2 1 -39 18 22 18 70 1 62 19 62 83 -3z m-1997 -53 c17 -17 17
-19 -3 -40 -25 -27 -72 -119 -72 -141 0 -9 -4 -16 -10 -16 -6 0 -10 46 -10
119 l0 119 38 -12 c21 -6 47 -19 57 -29z m-93 -272 c6 -29 -7 -34 -15 -6 -4
17 0 31 9 31 1 0 4 -11 6 -25z m-249 8 c-7 -2 -21 -2 -30 0 -10 3 -4 5 12 5
17 0 24 -2 18 -5z m115 -10 c-10 -2 -28 -2 -40 0 -13 2 -5 4 17 4 22 1 32 -1
23 -4z m2218 -2 c5 -5 25 -11 44 -14 19 -2 -4 -5 -52 -5 -72 -2 -88 1 -88 13
0 11 11 15 43 15 24 0 47 -4 53 -9z m202 -8 c-10 -2 -28 -2 -40 0 -13 2 -5 4
17 4 22 1 32 -1 23 -4z m-2355 -70 c-29 -2 -78 -2 -110 0 -32 2 -8 3 52 3 61
0 87 -1 58 -3z m2297 -3 c0 -5 19 -10 42 -10 23 0 39 -3 36 -6 -11 -11 -233
-15 -258 -5 -19 7 -2 10 75 11 68 0 95 3 85 10 -13 8 -12 10 3 10 9 0 17 -4
17 -10z m-2347 -27 c-18 -2 -48 -2 -65 0 -18 2 -4 4 32 4 36 0 50 -2 33 -4z
m2476 -29 c5 -5 -39 -8 -54 -4 -5 1 -39 2 -75 3 l-65 0 55 7 c50 6 129 2 139
-6z m-1734 -64 c-4 -6 187 -10 556 -10 309 0 564 -2 567 -5 3 -3 -33 -6 -79
-6 -46 -1 -74 -4 -61 -6 12 -2 22 -9 22 -14 0 -6 41 -9 101 -8 72 1 98 4 90
12 -21 21 -11 30 12 10 18 -18 40 -23 132 -28 61 -4 112 -9 114 -11 2 -2 -43
-4 -100 -5 -57 0 -153 -2 -214 -3 -212 -6 -1312 -4 -1550 3 -217 7 -226 8 -90
9 290 4 422 19 385 42 -11 7 -2 10 30 10 25 0 52 5 60 10 20 13 33 13 25 0z
m1162 -16 c-3 -3 -12 -4 -19 -1 -8 3 -5 6 6 6 11 1 17 -2 13 -5z m-1850 -50
c-3 -3 -12 -4 -19 -1 -8 3 -5 6 6 6 11 1 17 -2 13 -5z"/>
<path d="M2616 2623 c-6 -14 -5 -15 5 -6 7 7 10 15 7 18 -3 3 -9 -2 -12 -12z"/>
<path d="M3448 113 c6 -2 18 -2 25 0 6 3 1 5 -13 5 -14 0 -19 -2 -12 -5z"/>
</g>
</svg>
